# xmcd
# 
# Track frame offsets:
#     150
#     19016
#     39959
#     52840
#     68119
#     87933
#     103879
#     124377
#     139535
#     158849
#     193095
# 
# Disc length: 2815
# 
# Revision: 1
# Processed by: cddbd v1.5.2PL0 Copyright (c) Steve Scherf et al.
# Submitted via: fre:ac v1.0.31
# 
DISCID=8e0afd0b
DTITLE=Jorma Kaukonen - Ain't In No Hurry
DYEAR=2015
DGENRE=Blues
TTITLE0=Nobody Knows You When You Are Down And Out
TTITLE1=The Other Side Of The Mountain
TTITLE2=Suffer Little Children To Come Unto Me
TTITLE3=In My Dreams
TTITLE4=Sweet Fern
TTITLE5=Ain't In No Hurry
TTITLE6=Brother Can You Spare A Dime
TTITLE7=Where There's Two There's Trouble
TTITLE8=The Terrible Operation
TTITLE9=Bar Room Crystal Ball
TTITLE10=Seasons In The Field
EXTD=
EXTT0=
EXTT1=
EXTT2=
EXTT3=
EXTT4=
EXTT5=
EXTT6=
EXTT7=
EXTT8=
EXTT9=
EXTT10=
PLAYORDER=
